HIERARCHY
ROOT Hips
{
	OFFSET 0.00000 0.00000 0.00000
	CHANNELS 6 Xposition Yposition Zposition Zrotation Yrotation Xrotation 
	JOINT LHipJoint
	{
		OFFSET 0 0 0
		CHANNELS 3 Zrotation Yrotation Xrotation
		JOINT LeftUpLeg
		{
			OFFSET 1.28858 -1.83292 1.03970
			CHANNELS 3 Zrotation Yrotation Xrotation
			JOINT LeftLeg
			{
				OFFSET 2.47846 -6.80952 0.00000
				CHANNELS 3 Zrotation Yrotation Xrotation
				JOINT LeftFoot
				{
					OFFSET 2.75274 -7.56311 0.00000
					CHANNELS 3 Zrotation Yrotation Xrotation
					JOINT LeftToeBase
					{
						OFFSET 0.12848 -0.35301 1.68223
						CHANNELS 3 Zrotation Yrotation Xrotation
						End Site
						{
							OFFSET 0.00000 -0.00000 0.87311
						}
					}
				}
			}
		}
	}
	JOINT RHipJoint
	{
		OFFSET 0 0 0
		CHANNELS 3 Zrotation Yrotation Xrotation
		JOINT RightUpLeg
		{
			OFFSET -1.31183 -1.83292 1.03970
			CHANNELS 3 Zrotation Yrotation Xrotation
			JOINT RightLeg
			{
				OFFSET -2.44740 -6.72417 0.00000
				CHANNELS 3 Zrotation Yrotation Xrotation
				JOINT RightFoot
				{
					OFFSET -2.67343 -7.34519 0.00000
					CHANNELS 3 Zrotation Yrotation Xrotation
					JOINT RightToeBase
					{
						OFFSET -0.16914 -0.46471 1.77626
						CHANNELS 3 Zrotation Yrotation Xrotation
						End Site
						{
							OFFSET -0.00000 -0.00000 0.92777
						}
					}
				}
			}
		}
	}
	JOINT LowerBack
	{
		OFFSET 0 0 0
		CHANNELS 3 Zrotation Yrotation Xrotation
		JOINT Spine
		{
			OFFSET 0.01249 2.14252 0.03842
			CHANNELS 3 Zrotation Yrotation Xrotation
			JOINT Spine1
			{
				OFFSET -0.02957 2.14199 -0.03751
				CHANNELS 3 Zrotation Yrotation Xrotation
				JOINT Neck
				{
					OFFSET 0 0 0
					CHANNELS 3 Zrotation Yrotation Xrotation
					JOINT Neck1
					{
						OFFSET -0.01678 1.65709 -0.05476
						CHANNELS 3 Zrotation Yrotation Xrotation
						JOINT Head
						{
							OFFSET 0.07912 1.58331 -0.11843
							CHANNELS 3 Zrotation Yrotation Xrotation
							End Site
							{
								OFFSET 0.03298 1.73940 -0.04271
							}
						}
					}
				}
				JOINT LeftShoulder
				{
					OFFSET 0 0 0
					CHANNELS 3 Zrotation Yrotation Xrotation
					JOINT LeftArm
					{
						OFFSET 3.39556 1.16496 0.08673
						CHANNELS 3 Zrotation Yrotation Xrotation
						JOINT LeftForeArm
						{
							OFFSET 5.23910 -0.00000 -0.00000
							CHANNELS 3 Zrotation Yrotation Xrotation
							JOINT LeftHand
							{
								OFFSET 3.31467 -0.00000 0.00000
								CHANNELS 3 Zrotation Yrotation Xrotation
								JOINT LeftFingerBase
								{
									OFFSET 0 0 0
									CHANNELS 3 Zrotation Yrotation Xrotation
									JOINT LeftHandIndex1
									{
										OFFSET 0.96590 -0.00000 0.00000
										CHANNELS 3 Zrotation Yrotation Xrotation
										End Site
										{
											OFFSET 0.77873 -0.00000 0.00000
										}
									}
								}
								JOINT LThumb
								{
									OFFSET 0 0 0
									CHANNELS 3 Zrotation Yrotation Xrotation
									End Site
									{
										OFFSET 0.79062 -0.00000 0.79062
									}
								}
							}
						}
					}
				}
				JOINT RightShoulder
				{
					OFFSET 0 0 0
					CHANNELS 3 Zrotation Yrotation Xrotation
					JOINT RightArm
					{
						OFFSET -3.27193 1.31331 0.33940
						CHANNELS 3 Zrotation Yrotation Xrotation
						JOINT RightForeArm
						{
							OFFSET -5.30252 -0.00000 0.00000
							CHANNELS 3 Zrotation Yrotation Xrotation
							JOINT RightHand
							{
								OFFSET -3.67875 -0.00000 0.00000
								CHANNELS 3 Zrotation Yrotation Xrotation
								JOINT RightFingerBase
								{
									OFFSET 0 0 0
									CHANNELS 3 Zrotation Yrotation Xrotation
									JOINT RightHandIndex1
									{
										OFFSET -0.59481 -0.00000 0.00000
										CHANNELS 3 Zrotation Yrotation Xrotation
										End Site
										{
											OFFSET -0.47955 -0.00000 0.00000
										}
									}
								}
								JOINT RThumb
								{
									OFFSET 0 0 0
									CHANNELS 3 Zrotation Yrotation Xrotation
									End Site
									{
										OFFSET -0.48687 -0.00000 0.48687
									}
								}
							}
						}
					}
				}
			}
		}
	}
}
MOTION
Frames: 14
Frame Time: .0083333
9.7029 27.0064 8.3638 -1.9403 8.8114 6.8433 0.0000 0.0000 0.0000 -10.3781 -9.9037 -36.8571 6.4713 14.8700 46.8451 -0.6839 -14.4948 4.3405 2.0733 9.0172 25.8491 0.0000 0.0000 0.0000 21.6732 12.2070 -5.2335 -1.5742 -7.9163 22.4602 -4.6355 2.2297 -40.4204 -4.5829 12.8981 -38.9884 7.1896 0.8139 3.8439 2.5965 1.2661 3.1638 -1.3794 0.7341 1.2144 -4.4833 -3.7941 -3.1182 2.7428 -5.3368 27.1587 1.2553 -2.6108 9.2132 -0.0000 -0.0000 0.0000 -44.7532 8.6737 -24.1149 150.2934 -40.6406 -108.7820 -0.0000 -0.0000 1.5287 61.9507 -35.1624 -47.2253 -7.1250 0.0000 -0.0000 14.6345 -24.8575 -19.8862 -0.0000 -0.0000 0.0000 62.3503 -10.2818 23.4296 -42.1168 49.2752 -20.0290 0.0000 0.0000 11.0149 -21.3396 -11.4128 4.4205 7.1250 -0.0000 -0.0000 5.2193 -42.1501 0.3681
9.6893 26.9980 8.2581 -1.9436 8.5757 6.8873 0.0000 0.0000 0.0000 -10.7939 -10.0703 -36.5685 6.5695 14.9584 47.2266 -0.7261 -15.0914 2.9717 2.0667 9.0037 25.8069 0.0000 0.0000 0.0000 21.0455 12.0620 -6.3507 -1.8830 -8.6180 24.6076 -4.3255 2.3011 -38.9744 -4.6062 12.9261 -39.0923 6.9203 0.8773 3.9499 2.5711 1.3523 3.1778 -1.2604 0.7716 1.1687 -4.4930 -3.8032 -3.1405 2.7608 -5.3505 27.0689 1.2614 -2.6172 9.1867 0.0000 0.0000 0.0000 -44.6068 8.7112 -24.5225 150.2369 -40.6894 -108.7452 -0.0000 -0.0000 0.6416 62.3487 -34.8285 -47.4678 -7.1250 0.0000 -0.0000 14.9703 -24.8103 -20.3594 0.0000 0.0000 0.0000 62.4339 -10.7459 22.4903 -42.4829 49.4740 -20.3069 0.0000 0.0000 11.4815 -21.7664 -11.3012 4.4741 7.1250 -0.0000 -0.0000 4.8215 -42.0743 0.3489
9.6744 26.9973 8.1473 -1.8447 8.2673 6.9402 0.0000 0.0000 0.0000 -11.3779 -10.1676 -36.2048 6.6200 15.0034 47.4220 -0.7622 -15.7354 1.6600 2.0178 8.9031 25.4926 0.0000 0.0000 0.0000 20.2381 11.9637 -7.7218 -2.2839 -9.4339 27.1624 -3.9463 2.1181 -37.2027 -4.4976 12.7947 -38.6047 6.5413 0.9506 4.0859 2.5189 1.4485 3.2248 -1.1087 0.8136 1.1377 -4.4593 -3.7903 -3.1579 2.7137 -5.3229 26.9881 1.2416 -2.6064 9.1577 -0.0000 -0.0000 0.0000 -44.5181 8.6777 -24.9244 150.1333 -40.7789 -108.6775 -0.0000 0.0000 -0.3319 62.7109 -34.5247 -47.6899 -7.1250 0.0000 -0.0000 15.2761 -24.7701 -20.7917 -0.0000 -0.0000 0.0000 62.6085 -11.1208 21.4663 -42.7700 49.6281 -20.5254 0.0000 0.0000 11.9811 -22.1475 -11.3085 4.5633 7.1250 -0.0000 -0.0000 4.4827 -42.1205 0.3192
9.6584 27.0052 8.0341 -1.6270 7.8958 6.9980 0.0000 0.0000 0.0000 -12.1424 -10.2161 -35.7527 6.6326 15.0145 47.4705 -0.7993 -16.4934 0.3768 1.9317 8.7223 24.9304 0.0000 0.0000 0.0000 19.2436 11.9066 -9.2883 -2.7768 -10.3247 30.0347 -3.5038 1.4448 -35.1468 -4.2367 12.4688 -37.4114 6.0584 1.0299 4.2275 2.4228 1.5474 3.3056 -0.9442 0.8568 1.1357 -4.3861 -3.7541 -3.1678 2.6225 -5.2569 26.9135 1.2036 -2.5782 9.1255 -0.0000 -0.0000 0.0000 -44.4633 8.5420 -25.3044 149.9533 -40.9334 -108.5598 -0.0000 0.0000 -1.3199 63.0165 -34.2382 -47.8561 -7.1250 0.0000 -0.0000 15.5464 -24.7057 -21.1714 -0.0000 -0.0000 0.0000 62.8690 -11.4074 20.4210 -42.9616 49.7299 -20.6714 0.0000 0.0000 12.4059 -22.4354 -11.4554 4.6879 7.1250 -0.0000 -0.0000 4.2474 -42.3068 0.2828
9.6425 27.0216 7.9212 -1.3132 7.4636 7.0489 0.0000 0.0000 0.0000 -13.0583 -10.2175 -35.1875 6.6056 14.9906 47.3666 -0.8320 -17.3250 -0.9446 1.8162 8.4723 24.1581 0.0000 0.0000 0.0000 18.0929 11.8813 -10.9814 -3.3523 -11.2445 33.1091 -3.0061 0.0996 -32.8647 -3.8258 11.9250 -35.4671 5.5218 1.1121 4.3562 2.2766 1.6449 3.4169 -0.8007 0.8999 1.1710 -4.2881 -3.6910 -3.1689 2.5197 -5.1541 26.8527 1.1610 -2.5317 9.0942 0.0000 0.0000 0.0000 -44.4132 8.3123 -25.6305 149.6807 -41.1655 -108.3808 -0.0000 0.0000 -2.2450 63.2401 -33.9236 -47.9006 -7.1250 0.0000 -0.0000 15.7863 -24.5473 -21.4964 0.0000 0.0000 0.0000 63.2111 -11.6257 19.4125 -43.0749 49.7898 -20.7579 0.0000 0.0000 12.6441 -22.5979 -11.7345 4.8385 7.1250 -0.0000 -0.0000 4.1432 -42.6226 0.2435
9.6281 27.0456 7.8102 -0.9163 6.9652 7.0757 0.0000 0.0000 0.0000 -14.1060 -10.1571 -34.4716 6.5291 14.9222 47.0699 -0.8486 -18.1497 -2.3572 1.6671 8.1351 23.1253 0.0000 0.0000 0.0000 16.8067 11.8907 -12.7247 -3.9899 -12.1469 36.2537 -2.4886 -1.5234 -30.4216 -3.2783 11.1325 -32.7279 4.9622 1.1985 4.4779 2.0729 1.7450 3.5517 -0.7025 0.9450 1.2345 -4.1551 -3.6040 -3.1501 2.4163 -5.0235 26.8078 1.1151 -2.4691 9.0627 -0.0000 0.0000 0.0000 -44.3286 8.0023 -25.8770 149.3030 -41.4834 -108.1314 -0.0000 0.0000 -3.0598 63.3255 -33.5600 -47.7357 -7.1250 0.0000 -0.0000 15.9749 -24.2247 -21.7268 -0.0000 0.0000 0.0000 63.6429 -11.8092 18.4731 -43.1468 49.8276 -20.8129 0.0000 0.0000 12.6148 -22.6314 -12.1167 5.0012 7.1250 -0.0000 -0.0000 4.1711 -43.0355 0.2026
9.6148 27.0752 7.7011 -0.4706 6.4402 7.0712 0.0000 0.0000 0.0000 -15.2314 -10.0434 -33.6014 6.3996 14.8047 46.5652 -0.8420 -18.9120 -3.8348 1.4918 7.7158 21.8541 0.0000 0.0000 0.0000 15.4394 11.9164 -14.4609 -4.6552 -12.9846 39.3110 -1.9942 -3.0165 -27.8986 -2.7184 10.2247 -29.7074 4.4091 1.2752 4.6100 1.8302 1.8326 3.6927 -0.6477 0.9838 1.2987 -3.9929 -3.4975 -3.1012 2.3098 -4.8699 26.7731 1.0658 -2.3936 9.0278 0.0000 -0.0000 0.0000 -44.1950 7.6399 -26.0501 148.8180 -41.8852 -107.8089 -0.0000 0.0000 -3.7497 63.2282 -33.1773 -47.3256 -7.1250 0.0000 -0.0000 16.0763 -23.7311 -21.8081 0.0000 -0.0000 0.0000 64.1526 -11.9941 17.6274 -43.2245 49.8684 -20.8723 0.0000 0.0000 12.2751 -22.5978 -12.5550 5.1698 7.1250 -0.0000 -0.0000 4.2706 -43.5009 0.1583
9.6022 27.1078 7.5929 -0.0266 5.9274 7.0441 0.0000 0.0000 0.0000 -16.3536 -9.8873 -32.6297 6.2300 14.6475 45.8978 -0.8116 -19.6004 -5.3404 1.2856 7.1849 20.2643 0.0000 0.0000 0.0000 14.0677 11.9455 -16.1689 -5.3090 -13.7236 42.1412 -1.5745 -3.9240 -25.3910 -2.2648 9.3972 -27.0460 3.8951 1.3272 4.7592 1.5799 1.8895 3.8215 -0.6220 1.0070 1.3405 -3.8328 -3.3746 -3.0270 2.2015 -4.6942 26.7544 1.0184 -2.3085 8.9936 0.0000 -0.0000 0.0000 -44.0334 7.2898 -26.1787 148.2583 -42.3403 -107.4335 -0.0000 0.0000 -4.3233 62.9154 -32.7994 -46.6488 -7.1250 0.0000 -0.0000 16.0633 -23.0658 -21.6995 0.0000 -0.0000 0.0000 64.7127 -12.2042 16.8925 -43.3557 49.9370 -20.9726 0.0000 0.0000 11.6350 -22.5838 -13.0144 5.3510 7.1250 -0.0000 -0.0000 4.3586 -43.9905 0.1088
9.5897 27.1412 7.4842 0.3867 5.4484 7.0111 0.0000 0.0000 0.0000 -17.4207 -9.6955 -31.6293 6.0396 14.4666 45.1406 -0.7819 -20.2909 -6.6637 1.1726 6.8734 19.3409 0.0000 0.0000 0.0000 12.7460 11.9666 -17.8536 -5.9180 -14.3484 44.6517 -1.2643 -3.9490 -22.9949 -1.9571 8.7761 -25.0975 3.4398 1.3529 4.9170 1.3384 1.9136 3.9305 -0.6192 1.0140 1.3575 -3.6891 -3.2410 -2.9443 2.0935 -4.5026 26.7536 0.9752 -2.2175 8.9646 -0.0000 -0.0000 0.0000 -43.8476 6.9289 -26.2943 147.6292 -42.8408 -107.0077 -0.0000 0.0000 -4.7790 62.3826 -32.4347 -45.7118 -7.1250 0.0000 -0.0000 15.9302 -22.2379 -21.3938 -0.0000 -0.0000 0.0000 65.3141 -12.4468 16.2523 -43.5597 50.0431 -21.1289 0.0000 0.0000 10.7594 -22.6802 -13.4419 5.5486 7.1250 -0.0000 -0.0000 4.3430 -44.4587 0.0581
9.5761 27.1740 7.3737 0.7310 5.0349 6.9893 0.0000 0.0000 0.0000 -18.3723 -9.4877 -30.6637 5.8444 14.2759 44.3541 -0.7611 -21.0126 -7.8056 1.1383 6.7755 19.0519 0.0000 0.0000 0.0000 11.5470 11.9485 -19.5382 -6.4586 -14.8585 46.7957 -1.0618 -3.1064 -20.8162 -1.7811 8.3944 -23.9186 3.0738 1.3508 5.0739 1.1212 1.9035 4.0152 -0.6405 1.0046 1.3513 -3.5720 -3.1043 -2.8626 1.9953 -4.3061 26.7556 0.9401 -2.1259 8.9382 0.0000 -0.0000 0.0000 -43.6459 6.5621 -26.3812 146.9500 -43.3684 -106.5436 -0.0000 0.0000 -5.1141 61.7413 -32.0954 -44.6685 -7.1250 0.0000 -0.0000 15.7298 -21.3554 -20.9819 0.0000 -0.0000 0.0000 65.9510 -12.7326 15.6871 -43.8516 50.1933 -21.3528 0.0000 0.0000 9.7303 -22.9147 -13.7742 5.7473 7.1250 -0.0000 -0.0000 4.1849 -44.8426 0.0163
9.5609 27.2058 7.2607 0.9847 4.6926 6.9944 0.0000 0.0000 0.0000 -19.1743 -9.2759 -29.7612 5.6491 14.0794 43.5566 -0.7454 -21.7479 -8.8305 1.1413 6.7841 19.0774 0.0000 0.0000 0.0000 10.5226 11.8741 -21.2489 -6.9225 -15.2663 48.5806 -0.9364 -1.6659 -18.9538 -1.7068 8.2266 -23.4045 2.8024 1.3189 5.2156 0.9415 1.8559 4.0734 -0.6745 0.9776 1.3273 -3.4885 -2.9681 -2.7856 1.9101 -4.1094 26.7464 0.9148 -2.0363 8.9103 0.0000 -0.0000 0.0000 -43.4572 6.1964 -26.4410 146.2407 -43.9056 -106.0542 -0.0000 0.0000 -5.3310 61.0906 -31.8015 -43.6589 -7.1250 0.0000 -0.0000 15.5055 -20.5221 -20.5420 0.0000 -0.0000 0.0000 66.5945 -13.0639 15.2042 -44.2365 50.3889 -21.6489 0.0000 0.0000 8.6530 -23.2195 -13.9914 5.9217 7.1250 -0.0000 -0.0000 3.9413 -45.1130 -0.0110
9.5451 27.2364 7.1463 1.1399 4.4131 7.0379 0.0000 0.0000 0.0000 -19.8226 -9.0731 -28.9149 5.4499 13.8732 42.7320 -0.7287 -22.4632 -9.7871 1.1456 6.7966 19.1140 0.0000 0.0000 0.0000 9.7007 11.7355 -22.9980 -7.3128 -15.5897 50.0476 -0.8537 0.0177 -17.4614 -1.6822 8.1702 -23.2323 2.6293 1.2556 5.3183 0.8034 1.7686 4.1096 -0.7185 0.9320 1.3033 -3.4290 -2.8310 -2.7341 1.8225 -3.9078 26.7311 0.8927 -1.9468 8.8857 -0.0000 -0.0000 0.0000 -43.3078 5.7946 -26.4997 145.4950 -44.4554 -105.5345 -0.0000 0.0000 -5.4197 60.4876 -31.5801 -42.7736 -7.1250 0.0000 -0.0000 15.2778 -19.8141 -20.1160 -0.0000 -0.0000 0.0000 67.2103 -13.4225 14.8147 -44.6841 50.6128 -21.9943 0.0000 0.0000 7.6508 -23.5314 -14.0980 6.0548 7.1250 -0.0000 -0.0000 3.6708 -45.2670 -0.0242
9.5295 27.2658 7.0318 1.1966 4.1865 7.1222 0.0000 0.0000 0.0000 -20.3268 -8.8971 -28.0967 5.2400 13.6490 41.8494 -0.7169 -23.1513 -10.6260 1.1741 6.8777 19.3535 0.0000 0.0000 0.0000 9.0939 11.5225 -24.7783 -7.6367 -15.8454 51.2433 -0.7890 1.4658 -16.3503 -1.6807 8.1666 -23.2213 2.5568 1.1622 5.3718 0.7066 1.6436 4.1243 -0.7737 0.8691 1.2854 -3.3943 -2.6894 -2.7193 1.7322 -3.6961 26.7265 0.8740 -1.8551 8.8723 -0.0000 0.0000 0.0000 -43.2225 5.4556 -26.5155 144.7872 -44.9635 -105.0365 -0.0000 0.0000 -5.4121 60.0143 -31.4230 -42.0987 -7.1250 0.0000 -0.0000 15.0922 -19.2821 -19.7762 -0.0000 0.0000 0.0000 67.7727 -13.8032 14.5196 -45.1498 50.8417 -22.3548 0.0000 0.0000 6.8295 -23.8167 -14.1096 6.1416 7.1250 -0.0000 -0.0000 3.4080 -45.3156 -0.0266
9.5144 27.2943 6.9190 1.1975 3.9955 7.2371 0.0000 0.0000 0.0000 -20.7474 -8.7552 -27.2572 5.0099 13.3950 40.8656 -0.7080 -23.7837 -11.3538 1.2198 7.0054 19.7315 0.0000 0.0000 0.0000 8.6595 11.2279 -26.5581 -7.8982 -16.0438 52.1950 -0.7441 2.6056 -15.6215 -1.6859 8.1786 -23.2578 2.5357 1.0467 5.3851 0.6395 1.4900 4.1145 -0.8251 0.7924 1.2639 -3.3716 -2.5449 -2.7232 1.6338 -3.4773 26.7366 0.8547 -1.7619 8.8678 0.0000 -0.0000 0.0000 -43.2010 5.1575 -26.5042 144.1023 -45.4426 -104.5505 -0.0000 0.0000 -5.3308 59.6191 -31.3260 -41.5678 -7.1250 0.0000 -0.0000 14.9245 -18.8809 -19.4819 0.0000 -0.0000 0.0000 68.2760 -14.2141 14.2980 -45.5869 51.0528 -22.6943 0.0000 0.0000 6.2797 -24.0298 -14.0522 6.1785 7.1250 -0.0000 -0.0000 3.2004 -45.2810 -0.0222
